<svg xmlns="http://www.w3.org/2000/svg" viewBox="0 0 108.5 29.63"><defs><style>.roofer-1{fill:none;}</style></defs><g id="Layer_2" data-name="Layer 2"><g id="Layer_1-2" data-name="Layer 1"><rect class="roofer-1" width="108.5" height="29.63"></rect><g id="D1f3i9"><path d="M47.62,2.17l.14-.09A1.88,1.88,0,0,0,48,1.94a.68.68,0,0,0,.23-.25.25.25,0,0,1,.33-.15.75.75,0,0,0,.3,0,.82.82,0,0,1,.44,0s.1,0,.12,0h.19l.23,0,.51,0a5.15,5.15,0,0,1,.56,0,2.37,2.37,0,0,1,.34.08l.19,0a1.35,1.35,0,0,0,.72,0,1.11,1.11,0,0,1,.26,0l.18,0L53,1.39l.33-.07.33-.06.37,0c.13,0,.26,0,.39,0a.86.86,0,0,1,.23,0h.09a2.73,2.73,0,0,1,.7,0c.27.05.55.06.82.09l.84.12a.58.58,0,0,1,.37.13s.1,0,.16,0,.38.09.58.12.27,0,.4.05.4,0,.55.17a.42.42,0,0,0,.12,0l.14.06.45.2c.14.07.28.12.42.18l.17.07a1.17,1.17,0,0,0,.2.06.36.36,0,0,1,.23.15,1.51,1.51,0,0,0,.23.21s.07,0,.1-.05.07-.08.11-.09a4,4,0,0,1,.49,0c.1,0,.13.11.11.21a.37.37,0,0,0,0,.31s0,.07,0,.11c-.2.06-.2.07-.14.36.12-.05.24-.11.32,0,.07-.09.13-.07.2,0a3,3,0,0,0,.3.21c0-.2-.17-.24-.2-.39a.88.88,0,0,1,.45-.17,1.91,1.91,0,0,1,.33-.06.12.12,0,0,1,.11,0,1,1,0,0,1,.16.56.17.17,0,0,0,0,.12c.19.21.39.42.58.64a7.27,7.27,0,0,1,.74.92,2.08,2.08,0,0,1,.36.65.72.72,0,0,0,.13.3c.06.06,0,.17.06.26A2.59,2.59,0,0,1,65.27,8a.93.93,0,0,0,0,.33,1.46,1.46,0,0,1-.12.51c0,.18-.09.36-.13.54s0,.08,0,.12a.93.93,0,0,1,0,.23.9.9,0,0,0-.09.4,1,1,0,0,1,0,.34,1,1,0,0,0,0,.52c0,.3.08.6.09.89a9.33,9.33,0,0,1,0,1.18,4,4,0,0,1-.07,1,2.35,2.35,0,0,0,0,.37.39.39,0,0,0,.12.31c.09.11.19.22.16.36s.11.31.22.44a.59.59,0,0,1,0,.65,1.3,1.3,0,0,0-.08.17.24.24,0,0,1-.08.09.11.11,0,0,0,0,.15c0,.08.08.05.13,0s.16-.06.28.07l.21.23a.22.22,0,0,1,.07.22s0,0,0,.05a2.66,2.66,0,0,1,.42,1c0,.2.11.4.16.59v0c-.07.18.07.29.12.44a4.92,4.92,0,0,1,.14.55c0,.17.07.34.1.52a2.66,2.66,0,0,0,0,.28c0,.11.07.22.09.32.07.38.34.69.4,1.07a.32.32,0,0,1,0,.27s0,.1,0,.14a3.06,3.06,0,0,1,.31.86c0,.25.09.51.15.76,0,.09.1.16.14.24s.11.24.16.36a2.79,2.79,0,0,1,.2.55c0,.14.11.31,0,.46a.2.2,0,0,0,0,.2c.08.16.14.33.22.49a3.38,3.38,0,0,1,.19.71.22.22,0,0,0,.06.13.26.26,0,0,1,.09.22c0,.17,0,.34,0,.51s0,.11.1.13.06.05.08.1c-.17-.05-.27.08-.39.13a1.3,1.3,0,0,0-.26.14s-.05,0-.08.07,0,.06.08.07l.53.22,1.15.45.11,0a2.71,2.71,0,0,1-.32.07l-.94.07c-.28,0-.57,0-.85,0a10.78,10.78,0,0,1-2-.21c-.32-.07-.65-.09-1-.15l-.79-.17-1.41-.32a23.52,23.52,0,0,1-2.71-.83c-.44-.16-.86-.35-1.3-.51l-1.42-.52-2.32-.88c-.32-.13-.63-.29-.94-.44-.58-.28-1.15-.58-1.72-.87-.39-.2-.78-.41-1.18-.6s-.75-.32-1.12-.51a19.86,19.86,0,0,0-1.83-.8c-.4-.16-.79-.35-1.19-.53l-1.26-.56c-.26-.11-.52-.25-.78-.34s-.75-.24-1.12-.37c-.79-.28-1.56-.59-2.35-.86s-1.29-.42-1.93-.62a1.18,1.18,0,0,1-.84-.85c-.08-.23-.15-.47-.23-.71a.25.25,0,0,0,0-.08c1.95.73,3.9,1.44,5.84,2.18s3.85,1.53,5.78,2.3l0,0-.52-.23c-.52-.22-1-.44-1.56-.64s-1.21-.45-1.81-.69l-.93-.38-1.16-.48c-.59-.23-1.17-.47-1.76-.69l-2.79-1-1.08-.41s-.08,0-.08-.08c-.08-.31-.14-.62-.21-.93l0,0,3.46,1.35c0-.25.14-.48,0-.72,0-.06,0-.09.05-.09l.08.25.48-.22.14-.11a.69.69,0,0,1,.67-.08l.58.14a1.42,1.42,0,0,0,.41.08.59.59,0,0,0,.32-.09,1.64,1.64,0,0,0,.32-.27l.09-.08a.21.21,0,0,0,.09-.17.3.3,0,0,1,.07-.15c.17-.17.34-.33.5-.51s.14-.22.24-.3a1.75,1.75,0,0,1,.43-.38.39.39,0,0,0,.08-.52l-.12-.15a.25.25,0,0,0-.29-.08.2.2,0,0,1-.23-.09c-.09-.14-.11-.14-.26-.07l-.19.08a.29.29,0,0,1-.33,0,.13.13,0,0,0-.08,0,.39.39,0,0,1-.29-.09,1.12,1.12,0,0,0-.22-.09,2,2,0,0,1-.2-.11c-.14-.11-.27-.23-.4-.35l-.15-.12a.46.46,0,0,1-.2-.32c0-.15-.15-.21-.26-.28a7.72,7.72,0,0,0-1.59-.82l-.45-.17a.22.22,0,0,0-.26.09.87.87,0,0,0-.12.7,1.32,1.32,0,0,1,0,.34s-.08.06-.12.06A.74.74,0,0,1,40.1,13a.15.15,0,0,1-.09-.19.82.82,0,0,1,.17-.42.41.41,0,0,0,0-.47.91.91,0,0,1,0-.67,1.32,1.32,0,0,1,.47-.8,4.64,4.64,0,0,1,.44-.26,1.27,1.27,0,0,1,.66-.14l-.22.16a1.18,1.18,0,0,0-.47.55,1.13,1.13,0,0,0,0,.32s0,.08,0,.11a.21.21,0,0,0,.07.11s.06,0,.07,0l.63.39c.14.08.26.18.4.25s.27.11.41.17l.81.3.19.05s0,0,.06,0c.21-.11.41-.26.62-.35a.89.89,0,0,1,.43,0,5.23,5.23,0,0,0,1.12,0,.13.13,0,0,0,.07,0l.32-.34s0,0,0-.06a1.6,1.6,0,0,1,.32-.53l0,0c.07-.3.34-.51.39-.83,0,0,0-.07.06-.1s.15.08.21-.08a1,1,0,0,0,0-.1.62.62,0,0,0,.08-.45.74.74,0,0,1,.11-.48c0-.13.18-.11.28-.16l.1,0s-.05-.07-.08-.08a.54.54,0,0,1-.31-.38.22.22,0,0,1,.18-.29c.12,0,.12-.08.1-.16a.58.58,0,0,0-.08-.18.91.91,0,0,1-.14-.6.2.2,0,0,0,0-.15,1.46,1.46,0,0,0-.17-.24c-.06-.08-.1-.08-.14,0a.72.72,0,0,1-.39.43.43.43,0,0,1-.46,0,.23.23,0,0,0-.32,0c-.1.06-.18,0-.27-.06a.34.34,0,0,0-.14,0,.27.27,0,0,1-.24-.14.12.12,0,0,0-.18-.05c-.25.15-.38,0-.46-.24a4.25,4.25,0,0,0-.21-.49c0-.1-.14-.1-.21,0a1.65,1.65,0,0,1-.87.67.93.93,0,0,1-.84-.09.43.43,0,0,1-.16-.35,2.07,2.07,0,0,1,.15-.73,1.84,1.84,0,0,1,.09-.25.61.61,0,0,0,0-.4,1.21,1.21,0,0,0-.17-.4,3.47,3.47,0,0,1-.45-1.43,2.38,2.38,0,0,1,.52-1.7,3.75,3.75,0,0,1,.82-.82,1.09,1.09,0,0,1,.31-.14A3.7,3.7,0,0,1,45,.24a2,2,0,0,1,.64.14,4.28,4.28,0,0,1,.68.25,2.27,2.27,0,0,1,.46.3A.34.34,0,0,0,47,1a2.32,2.32,0,0,1,.53.05c.15,0,.27.29.23.47a5.11,5.11,0,0,1-.13.53A.45.45,0,0,1,47.62,2.17Zm8.8,16.15s.11,0,.13.05.12.24.18.36a1.11,1.11,0,0,0,.07.16,2.3,2.3,0,0,1,.2.42,2.69,2.69,0,0,1,.07.57.34.34,0,0,1,0,.19c-.06.12-.13.23-.2.35a.12.12,0,0,0,0,.18,3.07,3.07,0,0,1,.25.26.28.28,0,0,1,.07.25c0,.11-.06.22,0,.32a.17.17,0,0,1,0,.12c0,.32,0,.63.05.95a1.65,1.65,0,0,0,0,.32c0,.21.11.41.15.61s0,.15.16.16.1,0,.07.12a3.58,3.58,0,0,0-.09.45s0,.05.06.06l.57.23,1.19.45.8.33,1,.4,1.12.45,1,.39.73.3c.19.07.34.05.43-.13a.31.31,0,0,1,.24-.19.18.18,0,0,0,.09-.23L64.73,26a6.34,6.34,0,0,0-.26-.73c-.09-.21-.15-.42-.23-.63l-.69-1.9a27.24,27.24,0,0,1-.85-2.93c-.07-.26-.13-.52-.21-.78s-.19-.62-.3-.92a1.22,1.22,0,0,0-.18-.42,3.65,3.65,0,0,0-.36-.31,3.69,3.69,0,0,1-.85-1.11c-.15-.33-.29-.66-.43-1s-.22-.55-.33-.83c0-.12-.13-.23-.17-.35-.11-.28-.2-.56-.3-.84,0,0,0-.06-.06-.1l-.12.08-.43.39a6.25,6.25,0,0,1-.5.4q-.39.27-.81.51a1.81,1.81,0,0,1-.75.29,1.94,1.94,0,0,0-.9.37c-.06,0-.1.09,0,.14l.28.18a.14.14,0,0,1,0,.24.18.18,0,0,0,0,.13c0,.08.07.16.05.23s0,.25.08.37a1.41,1.41,0,0,1,0,.29c0,.09,0,.17,0,.25a.85.85,0,0,0,0,.16c0,.13,0,.26,0,.39v.32a1.34,1.34,0,0,0,0,.2Zm-3.28,3.9c0-.06,0-.12,0-.16-.09-.31-.19-.61-.27-.91a17.37,17.37,0,0,1-.53-1.91c-.08-.55-.24-1.1-.32-1.66s-.08-.85-.12-1.27,0-.55-.07-.82-.07-.58-.07-.87A7.07,7.07,0,0,1,51.83,13a1.66,1.66,0,0,1,.29-.83c.19-.24.39-.49.59-.72a5.56,5.56,0,0,1,.44-.39l.53-.49a.25.25,0,0,0,0-.07,1.86,1.86,0,0,1,.11-.19l.46-.54a.56.56,0,0,0,.05-.08l0,0L54,9.78a1.22,1.22,0,0,1-.41.07,4.18,4.18,0,0,1-1.35-.33c-.09,0-.14,0-.18.07-.15.38-.3.76-.46,1.13s-.37.88-.58,1.31a12.48,12.48,0,0,1-.93,1.82c-.19.27-.33.58-.54.85s-.63.71-.94,1.07c-.14.15-.27.31-.4.46l-.53.63c-.23.28-.52.52-.51.92,0,.08-.1.16-.15.13s-.29-.15-.43-.23-.26-.14-.4-.2a.14.14,0,0,0-.11,0c-.23.14-.47.27-.7.42s-.35.29-.53.44a1.53,1.53,0,0,1-.71.29l-.19.06s0,0,0,0l1.43.63c.35.14.7.27,1,.42l1.77.73.71.29,1.09.45c.18.08.37.14.56.21s.28.2.46.07l0,.13a1,1,0,0,1,.54.1c.22.09.44.15.67.22Zm-6-8.3a.35.35,0,0,1,.24-.27s0,0,.07-.06-.05-.06-.08-.07l-.23-.07-.56-.23a.13.13,0,0,0-.12,0,1.8,1.8,0,0,0-.19.2c-.07.07-.06.12,0,.16l.29.11Zm4.24,8.54v0a.54.54,0,0,0,.12.09l.66.28s.08,0,.09,0,.06,0,.09,0a.13.13,0,0,0,.1,0s0-.07,0-.09a.31.31,0,0,0-.11-.09s-.1,0-.13-.05a.84.84,0,0,0-.6-.29A1.11,1.11,0,0,0,51.35,22.46Zm1.92.09,0,0s0,0-.08,0l-.57-.22-.35-.14s-.08-.08-.13-.09-.08,0-.12,0l.07.11.07,0a1.06,1.06,0,0,1,.23.05l.73.28ZM64,28.47l1.1.43,0,0A6.46,6.46,0,0,0,64,28.47ZM65.6,29l0-.05-.23-.09,0,0Zm-13-6.07c.13,0,.13,0,.09-.11Zm2.55,2.16v0l-.33-.13v0Zm-12.66-7,0,.05.16.07,0-.06Z"></path></g></g></g></svg>