<svg aria-hidden="true" style="position: absolute; width: 0; height: 0; overflow: hidden;" version="1.1" xmlns="http://www.w3.org/2000/svg" xmlns:xlink="http://www.w3.org/1999/xlink">
<defs>
<symbol id="icon-add-outline" viewBox="0 0 20 20">
<title>add-outline</title>
<path d="M11 9h4v2h-4v4h-2v-4h-4v-2h4v-4h2v4zM10 20c-5.523 0-10-4.477-10-10s4.477-10 10-10v0c5.523 0 10 4.477 10 10s-4.477 10-10 10v0zM10 18c4.418 0 8-3.582 8-8s-3.582-8-8-8v0c-4.418 0-8 3.582-8 8s3.582 8 8 8v0z"></path>
</symbol>
<symbol id="icon-dachsvg" viewBox="0 0 45 32">
<title>dachsvg</title>
<path fill="none" stroke="#000" style="stroke: var(--color1, #000)" stroke-linejoin="miter" stroke-linecap="butt" stroke-miterlimit="10" stroke-width="0.7526" d="M37.253 16.019c0 8.031-6.51 14.541-14.541 14.541s-14.541-6.51-14.541-14.541c0-8.031 6.51-14.541 14.541-14.541s14.541 6.51 14.541 14.541z"></path>
<path d="M23.007 6.633l0.784-0.145 0.741-0.506 2.884 6.463-1.111 1.296z"></path>
<path d="M16.526 16.354l1.438 1.148c0 0-1.094 2.641-1.311 2.876s-0.723 0-0.977 0.199c-0.253 0.199-3.165 5.498-3.165 5.498l4.015-9.721z"></path>
<path d="M27.848 17.195l1.288-1.131 4.228 9.306c0 0-2.93-4.558-3.075-4.829s-0.814-0.163-1.067-0.416c-0.253-0.253-1.375-2.93-1.375-2.93z"></path>
<path d="M23.657 4.412c0 0.467-0.379 0.846-0.846 0.846s-0.846-0.379-0.846-0.846c0-0.467 0.379-0.846 0.846-0.846s0.846 0.379 0.846 0.846z"></path>
<path fill="none" stroke="#000" style="stroke: var(--color1, #000)" stroke-linejoin="miter" stroke-linecap="butt" stroke-miterlimit="10" stroke-width="0.43" d="M24.357 4.453c0 0.854-0.692 1.546-1.546 1.546s-1.546-0.692-1.546-1.546c0-0.854 0.692-1.546 1.546-1.546s1.546 0.692 1.546 1.546z"></path>
<path d="M21.138 5.982l0.705 0.434 0.94 0.181-3.201 7.144-1.266-1.465z"></path>
<path d="M21.102 20.251l1.483 1.176-2.044 1.79-1.248-1.049z"></path>
<path d="M18.823 22.295c0.181-0.036 1.628 1.284 1.628 1.501s-1.194 1.067-1.628 1.573-0.995 2.008-1.573 2.695c-0.579 0.687-1.447 0.814-2.243 0.217s-0.543-1.7-0.253-2.098c0.289-0.398 2.044-1.573 2.568-2.044s1.32-1.809 1.501-1.845z"></path>
<path d="M25.732 23.923c-0.163 0.199 1.212-1.429 1.519-1.393s0.695 1.337 1.049 1.628c0.354 0.29 1.772 1.266 2.405 1.971s0.127 1.682-0.163 1.899c-0.289 0.217-1.284 0.488-1.772 0s-1.356-2.424-1.953-2.912-0.995-0.38-1.085-0.543c-0.090-0.163 0.163-0.85 0-0.651z"></path>
<path d="M18.841 5.222l1.266 1.103-4.196 3.708 10.707 12.425-1.013 1.067-12.099-10.291-2.876 7.668 1.176-12.769z"></path>
<path d="M26.709 7.971l3.491-3.31c0 0 3.744 2.948 5.227 7.506s-0.959 9.531-0.959 9.531 0.145-2.188-1.049-5.028c-1.194-2.84-1.791-3.31-1.791-3.31l-6.909 6.149-1.519-1.628 6.402-7.361c0 0 0.217-0.76-0.362-0.886s-0.995 0.326-0.995 0.326l-1.537-1.99z"></path>
</symbol>
<symbol id="icon-home3" viewBox="0 0 32 32">
<title>home3</title>
<path d="M32 19l-6-6v-9h-4v5l-6-6-16 16v1h4v10h10v-6h4v6h10v-10h4z"></path>
</symbol>
<symbol id="icon-phone" viewBox="0 0 32 32">
<title>phone</title>
<path d="M22 20c-2 2-2 4-4 4s-4-2-6-4-4-4-4-6 2-2 4-4-4-8-6-8-6 6-6 6c0 4 4.109 12.109 8 16s12 8 16 8c0 0 6-4 6-6s-6-8-8-6z"></path>
</symbol>
<symbol id="icon-plus" viewBox="0 0 32 32">
<title>plus</title>
<path d="M31 12h-11v-11c0-0.552-0.448-1-1-1h-6c-0.552 0-1 0.448-1 1v11h-11c-0.552 0-1 0.448-1 1v6c0 0.552 0.448 1 1 1h11v11c0 0.552 0.448 1 1 1h6c0.552 0 1-0.448 1-1v-11h11c0.552 0 1-0.448 1-1v-6c0-0.552-0.448-1-1-1z"></path>
</symbol>
<symbol id="icon-google-plus" viewBox="0 0 32 32">
<title>google-plus</title>
<path d="M10.181 14.294v3.494h5.775c-0.231 1.5-1.744 4.394-5.775 4.394-3.475 0-6.313-2.881-6.313-6.431s2.838-6.431 6.313-6.431c1.981 0 3.3 0.844 4.056 1.569l2.762-2.662c-1.775-1.656-4.075-2.662-6.819-2.662-5.631 0.006-10.181 4.556-10.181 10.188s4.55 10.181 10.181 10.181c5.875 0 9.775-4.131 9.775-9.95 0-0.669-0.075-1.181-0.163-1.688h-9.613z"></path>
<path d="M32 14h-3v-3h-3v3h-3v3h3v3h3v-3h3z"></path>
</symbol>
<symbol id="icon-facebook" viewBox="0 0 32 32">
<title>facebook</title>
<path d="M19 6h5v-6h-5c-3.86 0-7 3.14-7 7v3h-4v6h4v16h6v-16h5l1-6h-6v-3c0-0.542 0.458-1 1-1z"></path>
</symbol>
<symbol id="icon-whatsapp" viewBox="0 0 32 32">
<title>whatsapp</title>
<path d="M27.281 4.65c-2.994-3-6.975-4.65-11.219-4.65-8.738 0-15.85 7.112-15.85 15.856 0 2.794 0.731 5.525 2.119 7.925l-2.25 8.219 8.406-2.206c2.319 1.262 4.925 1.931 7.575 1.931h0.006c0 0 0 0 0 0 8.738 0 15.856-7.113 15.856-15.856 0-4.238-1.65-8.219-4.644-11.219zM16.069 29.050v0c-2.369 0-4.688-0.637-6.713-1.837l-0.481-0.288-4.987 1.306 1.331-4.863-0.313-0.5c-1.325-2.094-2.019-4.519-2.019-7.012 0-7.269 5.912-13.181 13.188-13.181 3.519 0 6.831 1.375 9.319 3.862 2.488 2.494 3.856 5.8 3.856 9.325-0.006 7.275-5.919 13.188-13.181 13.188zM23.294 19.175c-0.394-0.2-2.344-1.156-2.706-1.288s-0.625-0.2-0.894 0.2c-0.262 0.394-1.025 1.288-1.256 1.556-0.231 0.262-0.462 0.3-0.856 0.1s-1.675-0.619-3.188-1.969c-1.175-1.050-1.975-2.35-2.206-2.744s-0.025-0.613 0.175-0.806c0.181-0.175 0.394-0.463 0.594-0.694s0.262-0.394 0.394-0.662c0.131-0.262 0.069-0.494-0.031-0.694s-0.894-2.15-1.219-2.944c-0.319-0.775-0.65-0.669-0.894-0.681-0.231-0.012-0.494-0.012-0.756-0.012s-0.694 0.1-1.056 0.494c-0.363 0.394-1.387 1.356-1.387 3.306s1.419 3.831 1.619 4.1c0.2 0.262 2.794 4.269 6.769 5.981 0.944 0.406 1.681 0.65 2.256 0.837 0.95 0.3 1.813 0.256 2.494 0.156 0.762-0.113 2.344-0.956 2.675-1.881s0.331-1.719 0.231-1.881c-0.094-0.175-0.356-0.275-0.756-0.475z"></path>
</symbol>
<symbol id="icon-twitter" viewBox="0 0 32 32">
<title>twitter</title>
<path d="M32 7.075c-1.175 0.525-2.444 0.875-3.769 1.031 1.356-0.813 2.394-2.1 2.887-3.631-1.269 0.75-2.675 1.3-4.169 1.594-1.2-1.275-2.906-2.069-4.794-2.069-3.625 0-6.563 2.938-6.563 6.563 0 0.512 0.056 1.012 0.169 1.494-5.456-0.275-10.294-2.888-13.531-6.862-0.563 0.969-0.887 2.1-0.887 3.3 0 2.275 1.156 4.287 2.919 5.463-1.075-0.031-2.087-0.331-2.975-0.819 0 0.025 0 0.056 0 0.081 0 3.181 2.263 5.838 5.269 6.437-0.55 0.15-1.131 0.231-1.731 0.231-0.425 0-0.831-0.044-1.237-0.119 0.838 2.606 3.263 4.506 6.131 4.563-2.25 1.762-5.075 2.813-8.156 2.813-0.531 0-1.050-0.031-1.569-0.094 2.913 1.869 6.362 2.95 10.069 2.95 12.075 0 18.681-10.006 18.681-18.681 0-0.287-0.006-0.569-0.019-0.85 1.281-0.919 2.394-2.075 3.275-3.394z"></path>
</symbol>
</defs>
</svg>
